<svg xmlns="http://www.w3.org/2000/svg" xmlns:xlink="http://www.w3.org/1999/xlink" width="1920" zoomAndPan="magnify" viewBox="0 0 1440 809.999993" height="1080" preserveAspectRatio="xMidYMid meet" version="1.0"><defs><g/><clipPath id="d858898b20"><path d="M 650.25 335.25 L 789.75 335.25 L 789.75 474.75 L 650.25 474.75 Z M 650.25 335.25 " clip-rule="nonzero"/></clipPath><clipPath id="f3a63c6033"><path d="M 720 335.25 C 681.476562 335.25 650.25 366.476562 650.25 405 C 650.25 443.523438 681.476562 474.75 720 474.75 C 758.523438 474.75 789.75 443.523438 789.75 405 C 789.75 366.476562 758.523438 335.25 720 335.25 Z M 720 335.25 " clip-rule="nonzero"/></clipPath><clipPath id="1ea5035721"><path d="M 0.25 0.25 L 139.75 0.25 L 139.75 139.75 L 0.25 139.75 Z M 0.25 0.25 " clip-rule="nonzero"/></clipPath><clipPath id="f2deee928b"><path d="M 70 0.25 C 31.476562 0.25 0.25 31.476562 0.25 70 C 0.25 108.523438 31.476562 139.75 70 139.75 C 108.523438 139.75 139.75 108.523438 139.75 70 C 139.75 31.476562 108.523438 0.25 70 0.25 Z M 70 0.25 " clip-rule="nonzero"/></clipPath><clipPath id="9dbede0b39"><rect x="0" width="140" y="0" height="140"/></clipPath></defs><g clip-path="url(#d858898b20)"><g clip-path="url(#f3a63c6033)"><g transform="matrix(1, 0, 0, 1, 650, 335)"><g clip-path="url(#9dbede0b39)"><g clip-path="url(#1ea5035721)"><g clip-path="url(#f2deee928b)"><path fill="#5ce1e6" d="M 0.25 0.25 L 139.75 0.25 L 139.75 139.75 L 0.25 139.75 Z M 0.25 0.25 " fill-opacity="1" fill-rule="nonzero"/></g></g></g></g></g></g><g fill="#ffffff" fill-opacity="1"><g transform="translate(685.628878, 426.749999)"><g><path d="M 32.265625 -7.140625 L 45.015625 -28.28125 L 45.015625 -13.15625 L 41.515625 -13.15625 L 41.515625 0 L 64.546875 0 L 64.546875 -13.15625 L 61.046875 -13.15625 L 61.046875 -45.21875 L 64.546875 -45.21875 L 64.546875 -58.3125 L 45.78125 -58.3125 L 32.265625 -35.765625 L 18.765625 -58.3125 L 0 -58.3125 L 0 -45.21875 L 3.5 -45.21875 L 3.5 -13.15625 L 0 -13.15625 L 0 0 L 23.03125 0 L 23.03125 -13.15625 L 19.53125 -13.15625 L 19.53125 -28.28125 Z M 32.265625 -28.421875 L 48.296875 -55.15625 L 61.3125 -55.15625 L 61.3125 -48.4375 L 57.8125 -48.4375 L 57.8125 -9.9375 L 61.3125 -9.9375 L 61.3125 -3.21875 L 44.65625 -3.21875 L 44.65625 -9.9375 L 48.15625 -9.9375 L 48.15625 -39.203125 L 32.265625 -12.671875 L 16.3125 -39.203125 L 16.3125 -9.9375 L 19.8125 -9.9375 L 19.8125 -3.21875 L 3.21875 -3.21875 L 3.21875 -9.9375 L 6.71875 -9.9375 L 6.71875 -48.4375 L 3.21875 -48.4375 L 3.21875 -55.15625 L 16.234375 -55.15625 Z M 32.265625 -28.421875 "/></g></g></g></svg>